<svg version="1.1" id="Layer_1" xmlns="http://www.w3.org/2000/svg" xmlns:xlink="http://www.w3.org/1999/xlink" x="0px" y="0px"
	 width="100%" viewBox="0 0 1024 1024" enable-background="new 0 0 1024 1024" xml:space="preserve">
<path fill="#000000" opacity="1.000000" stroke="none" 
	d="
M557.466797,564.483521 
	C548.753723,568.461060 542.488708,575.040283 535.964172,581.180115 
	C523.461853,592.945312 500.458954,593.306763 488.899597,580.552856 
	C474.916809,565.125000 456.460846,558.976257 437.543457,553.437500 
	C414.193756,546.601013 390.325745,542.524780 366.107574,540.155884 
	C342.535828,537.850220 318.925507,537.350891 295.277954,537.380554 
	C285.914581,537.392273 282.805786,534.239258 282.805511,524.758240 
	C282.803680,460.096954 282.815887,395.435699 282.820587,330.774414 
	C282.821808,314.109131 282.791351,297.443787 282.815552,280.778534 
	C282.830200,270.678802 285.864075,267.647217 295.818451,267.630066 
	C301.651245,267.620026 307.485474,267.531647 313.316284,267.634888 
	C316.537079,267.691895 317.743225,266.340424 317.687714,263.140320 
	C317.554749,255.476639 317.628784,247.808929 317.657593,240.142990 
	C317.686157,232.542038 321.222656,228.932007 328.954285,228.716019 
	C341.794312,228.357361 354.576172,229.544983 367.311798,230.816071 
	C389.366913,233.017273 411.009369,237.401123 432.018524,244.643524 
	C461.757324,254.895279 488.464508,270.010345 510.184906,293.173676 
	C510.960602,294.000885 511.892517,294.681580 512.920471,295.577728 
	C513.688843,294.991943 514.405884,294.582031 514.952209,294.009247 
	C542.269104,265.368134 576.326904,248.765274 614.007812,238.765564 
	C634.310425,233.377655 655.029480,230.631378 676.011658,229.549850 
	C682.492126,229.215820 688.956726,228.581802 695.454651,228.718018 
	C703.570007,228.888138 707.310120,232.684113 707.342346,240.750824 
	C707.371643,248.083435 707.498352,255.420471 707.289307,262.747223 
	C707.184937,266.401337 708.366028,267.839905 712.138733,267.698578 
	C718.462769,267.461700 724.802795,267.564514 731.134521,267.647095 
	C737.398438,267.728790 740.962219,271.239716 741.309937,277.496399 
	C741.374634,278.659668 741.334351,279.829010 741.334351,280.995544 
	C741.333862,361.988983 741.333679,442.982391 741.330200,523.975830 
	C741.329712,534.526245 738.513794,537.489502 728.119263,537.356323 
	C707.289734,537.089355 686.465576,537.676758 665.739624,539.476318 
	C628.643372,542.697144 592.279602,549.509216 557.466797,564.483521 
M485.657745,524.765381 
	C491.362488,528.830872 496.518463,533.616577 501.687164,538.385620 
	C502.080811,538.090271 502.474457,537.794922 502.868103,537.499573 
	C502.868103,535.362854 502.868225,533.226196 502.868042,531.089478 
	C502.862396,461.936066 502.697693,392.781830 503.055573,323.630310 
	C503.099579,315.134125 500.355713,309.165894 494.622437,303.419403 
	C469.197632,277.936005 437.973999,263.619293 403.534882,255.274445 
	C383.728241,250.475174 363.550110,248.712387 343.274078,247.578766 
	C336.545502,247.202591 336.303436,247.197327 336.303436,254.101730 
	C336.303223,326.921356 336.308167,399.740967 336.312469,472.560577 
	C336.312592,474.726807 336.357666,476.893677 336.317291,479.059082 
	C336.259491,482.157928 337.736511,483.523376 340.835480,483.721222 
	C361.580231,485.045532 382.215302,487.366791 402.552551,491.732178 
	C431.848236,498.020508 460.200134,506.813110 485.657745,524.765381 
M688.688354,364.500061 
	C688.688416,328.838287 688.690613,293.176483 688.687195,257.514709 
	C688.686157,247.172821 688.678955,247.175156 678.166748,248.096527 
	C677.337463,248.169220 676.502930,248.185806 675.670288,248.215378 
	C650.415955,249.112122 625.723694,253.317490 601.797363,261.450989 
	C572.975830,271.248566 547.089172,285.809601 526.679932,309.000885 
	C523.659912,312.432678 522.230469,316.043945 522.238586,320.720673 
	C522.360840,391.377655 522.332581,462.034851 522.370605,532.692017 
	C522.371460,534.293579 521.898682,535.988586 522.826111,537.524719 
	C523.193054,537.488525 523.589050,537.569885 523.789307,537.408447 
	C524.564514,536.783508 525.293701,536.098267 526.011108,535.405457 
	C538.524353,523.321350 553.121033,514.490295 569.067383,507.742371 
	C605.067932,492.508057 643.085815,486.749481 681.689331,483.792480 
	C688.444885,483.275024 688.669434,483.291809 688.672729,476.485168 
	C688.690674,439.490143 688.685120,402.495117 688.688354,364.500061 
z"/>
<path fill="#000000" opacity="1.000000" stroke="none" 
	d="
M774.398804,693.015015 
	C771.350952,707.248535 762.086243,715.475830 749.860535,720.745850 
	C749.157776,722.751953 750.473022,723.840698 751.274048,724.994873 
	C759.342773,736.620789 767.447510,748.221985 775.595581,759.792480 
	C778.585510,764.038330 782.092712,767.801514 786.454346,770.713440 
	C787.816223,771.622620 789.503662,772.553772 788.720276,774.625732 
	C788.079651,776.319946 786.435974,776.344238 784.906860,776.344299 
	C773.914856,776.344971 762.922241,776.270691 751.931335,776.378662 
	C748.454102,776.412781 746.910278,774.331055 745.603821,771.671875 
	C738.410645,757.031128 731.204956,742.396484 724.012878,727.755188 
	C722.905884,725.501770 722.006042,723.384094 718.761047,723.272461 
	C712.720520,723.064453 712.228210,723.311523 712.223633,729.449463 
	C712.217834,737.277039 712.342163,745.105591 712.249146,752.931824 
	C712.170654,759.530518 713.981201,765.392395 718.315979,770.423340 
	C719.406250,771.688660 720.702393,772.992126 719.882507,774.830994 
	C719.018494,776.769104 717.079163,776.330688 715.481567,776.336121 
	C703.323853,776.377319 691.165955,776.383545 679.008240,776.342590 
	C677.589783,776.337830 675.806702,776.834351 674.965210,775.167725 
	C674.041077,773.337341 675.291077,771.973633 676.474915,770.789001 
	C681.312927,765.947083 682.541443,759.716675 682.577637,753.349792 
	C682.735962,725.537537 682.705139,697.723633 682.602051,669.910950 
	C682.580139,663.988464 681.255737,658.351379 676.679749,653.999451 
	C675.606873,652.979187 674.470520,651.804871 674.960205,650.103088 
	C675.482727,648.287109 677.187317,648.076660 678.618774,648.140747 
	C701.025391,649.145996 723.594360,645.322266 745.856445,649.789612 
	C772.014221,655.038818 777.797791,676.432007 774.398804,693.015015 
M735.078796,706.626160 
	C744.572815,698.123962 746.861206,681.725830 740.160156,670.990906 
	C737.708008,667.062622 734.093262,664.858765 729.844360,663.667908 
	C725.343750,662.406555 720.692322,662.224731 716.012878,662.308838 
	C713.205994,662.359253 712.209473,663.558838 712.220459,666.256226 
	C712.276794,680.056702 712.300537,693.857910 712.207520,707.658020 
	C712.186646,710.758789 713.518982,711.812012 716.422485,711.640869 
	C722.744751,711.268005 729.054443,710.911682 735.078796,706.626160 
z"/>
<path fill="#000000" opacity="1.000000" stroke="none" 
	d="
M659.343872,714.864990 
	C657.792297,747.245117 634.184143,774.143311 603.092712,778.063782 
	C561.391541,783.322144 533.680908,753.196716 530.434631,720.470459 
	C527.515625,691.043518 542.469055,665.890320 564.102295,654.239868 
	C601.875061,633.897583 651.669495,654.265625 658.535461,700.974365 
	C659.196777,705.473206 659.220764,709.908813 659.343872,714.864990 
M624.086121,730.681519 
	C627.283203,712.963318 626.381165,695.573181 619.778442,678.678772 
	C616.907898,671.333862 612.521423,665.067627 605.262939,661.538940 
	C592.441895,655.306274 578.714233,660.156921 571.522461,673.817749 
	C561.543335,692.773193 560.690247,712.925842 565.071472,733.493042 
	C567.220520,743.581482 571.033081,752.955383 578.963074,760.039673 
	C589.203430,769.187866 604.062317,767.989807 612.739929,757.387573 
	C618.923096,749.833069 621.955200,740.903259 624.086121,730.681519 
z"/>
<path fill="#000000" opacity="1.000000" stroke="none" 
	d="
M386.140808,716.009399 
	C391.236298,729.619629 396.164581,742.877625 401.173248,756.105164 
	C403.188965,761.428467 405.871582,766.401001 409.695404,770.680725 
	C410.831970,771.952759 412.059265,773.226257 411.148956,775.072876 
	C410.309845,776.775024 408.575775,776.329895 407.143494,776.333740 
	C394.479919,776.367737 381.816132,776.372253 369.152588,776.335449 
	C367.723785,776.331299 365.955048,776.725037 365.193054,774.977722 
	C364.446686,773.266296 365.839050,772.186951 366.804413,771.098999 
	C370.011475,767.484741 370.413635,763.296082 369.087982,758.927551 
	C367.252838,752.879944 365.093506,746.931152 363.221619,740.893982 
	C362.392395,738.219543 360.823700,737.312317 358.071594,737.340942 
	C347.075378,737.455139 336.075958,737.481995 325.080719,737.327087 
	C321.821930,737.281128 320.207550,738.571472 319.403564,741.599854 
	C318.123779,746.420410 316.647766,751.189026 315.242126,755.975891 
	C313.590302,761.601196 313.643158,766.823242 318.509399,771.066528 
	C319.639679,772.052124 320.630768,773.332214 319.863403,775.010681 
	C319.169525,776.528381 317.663879,776.328674 316.372620,776.333374 
	C307.708282,776.364990 299.043701,776.365662 290.379364,776.331482 
	C289.088226,776.326355 287.573700,776.474915 287.001007,774.861023 
	C286.564026,773.629578 287.043396,772.473572 288.019287,771.737793 
	C293.585846,767.541260 295.378662,761.174561 297.535858,755.083374 
	C307.869202,725.905579 318.095551,696.689941 328.388763,667.497986 
	C330.199310,662.363159 330.646301,657.553345 326.761902,652.966675 
	C324.639252,650.460266 325.780029,648.279236 328.908112,648.215393 
	C338.395721,648.021667 347.893585,648.037292 357.380646,648.260681 
	C360.972168,648.345276 362.069641,651.484375 363.144562,654.372559 
	C370.748444,674.802795 378.381866,695.222168 386.140808,716.009399 
M352.359314,711.041077 
	C348.401733,699.840210 344.444122,688.639404 340.073486,676.269470 
	C334.972473,692.645935 330.264191,707.761475 325.451782,723.211426 
	C336.068542,723.211426 345.893097,723.211426 356.372925,723.211426 
	C354.978699,718.978027 353.794708,715.382996 352.359314,711.041077 
z"/>
<path fill="#000000" opacity="1.000000" stroke="none" 
	d="
M274.307373,732.155823 
	C279.483246,752.797974 265.838501,773.231628 244.142868,777.102417 
	C225.514130,780.426025 207.415970,778.071411 189.976288,770.578186 
	C186.149857,768.934082 184.718887,766.667603 184.475082,762.337646 
	C184.007187,754.027405 183.613724,745.729309 183.635117,737.408936 
	C183.639313,735.776001 183.325577,733.794556 185.406891,733.213928 
	C187.388275,732.661072 188.418579,734.340454 189.296783,735.716797 
	C193.978180,743.053955 199.589966,749.622559 205.634384,755.850891 
	C213.108658,763.552551 222.268158,766.657837 232.819855,765.613708 
	C238.686234,765.033203 243.273331,762.174133 245.540787,756.529785 
	C247.733521,751.071472 247.276642,745.724182 243.661423,740.939636 
	C239.446854,735.361877 233.606537,731.784302 227.629883,728.436462 
	C218.483627,723.313171 209.113892,718.581970 200.399750,712.706848 
	C184.628448,702.073853 178.798737,686.668396 184.858185,670.503052 
	C189.931244,656.969177 200.844635,650.341370 214.305008,647.838562 
	C231.212631,644.694702 247.699875,647.366028 263.829956,652.930420 
	C267.164154,654.080688 268.534637,655.875732 268.426208,659.497803 
	C268.237091,665.814331 268.552277,672.145813 268.647034,678.471191 
	C268.671967,680.136230 268.868378,682.013550 267.086151,682.881226 
	C265.126831,683.835022 263.545288,682.646667 262.210327,681.314819 
	C257.032867,676.149963 252.829010,670.010681 246.770691,665.730652 
	C239.059570,660.283081 230.830826,656.678955 221.106796,659.274597 
	C210.267654,662.167847 206.306961,673.476685 212.964706,682.553772 
	C216.369598,687.195801 220.875305,690.688721 225.799683,693.514404 
	C236.190048,699.476685 246.813629,705.035706 257.152527,711.083313 
	C265.278717,715.836548 271.504333,722.406250 274.307373,732.155823 
z"/>
<path fill="#000000" opacity="1.000000" stroke="none" 
	d="
M470.996552,776.358765 
	C462.332275,776.359009 454.166870,776.382324 446.001831,776.340149 
	C444.564941,776.332764 442.816772,776.666626 442.087280,774.895447 
	C441.402405,773.232727 442.509094,771.963623 443.564209,770.934326 
	C449.438507,765.204163 450.517120,757.730957 450.569427,750.201904 
	C450.760620,722.707825 450.574951,695.211243 450.713440,667.716553 
	C450.734711,663.498413 449.166412,662.418701 445.151031,662.261230 
	C435.665619,661.889465 427.847046,664.788818 421.757599,672.204651 
	C419.328522,675.162842 416.769043,678.032776 414.068237,680.742920 
	C411.958466,682.859985 409.858917,682.632996 409.788971,679.299927 
	C409.593170,669.973572 409.580261,660.636597 409.808929,651.311462 
	C409.902527,647.495239 413.286133,647.821045 415.870422,647.819397 
	C427.866394,647.811768 439.873718,647.629700 451.855042,648.085571 
	C461.850250,648.465759 471.791656,648.535217 481.792267,648.028931 
	C492.596863,647.481934 503.448608,647.930481 514.276733,647.755127 
	C518.781616,647.682190 520.533813,649.501343 520.395996,654.025146 
	C520.157593,661.850159 520.329712,669.687256 520.293274,677.519165 
	C520.285645,679.154602 520.580688,681.119019 518.671875,681.884399 
	C516.741943,682.658264 515.638306,680.998901 514.536011,679.794556 
	C511.948853,676.967712 509.298859,674.185791 506.888550,671.212036 
	C500.545776,663.386658 492.077545,661.647339 482.644745,662.399353 
	C480.398834,662.578369 479.332336,663.668335 479.370056,665.908569 
	C479.392517,667.241028 479.349976,668.574524 479.349884,669.907532 
	C479.348083,696.236511 479.332855,722.565430 479.356995,748.894409 
	C479.364716,757.284546 479.700043,765.527344 486.113037,772.176147 
	C488.368835,774.514893 486.917328,776.197021 483.991943,776.295593 
	C479.830505,776.435791 475.661377,776.349182 470.996552,776.358765 
z"/>
<path fill="#000000" opacity="1.000000" stroke="none" 
	d="
M838.389648,718.000122 
	C838.827393,731.801331 837.544373,745.126648 839.159363,758.421387 
	C839.725647,763.083008 841.401306,767.051147 844.339172,770.607605 
	C845.380432,771.868164 846.770508,773.138428 845.841858,775.010071 
	C845.009216,776.688049 843.282104,776.320618 841.841003,776.324646 
	C830.013062,776.357544 818.184998,776.353516 806.356934,776.330505 
	C804.892212,776.327637 803.164673,776.602844 802.387268,774.922791 
	C801.586426,773.192322 803.052002,772.142456 804.023315,771.086243 
	C808.654968,766.049622 809.532837,759.716614 809.572083,753.391602 
	C809.742493,725.904846 809.729309,698.416077 809.583130,670.929016 
	C809.549133,664.528992 808.003235,658.462769 803.475525,653.417969 
	C800.814514,650.453064 801.574219,648.373779 805.550964,648.289551 
	C817.868286,648.028870 830.195801,648.109070 842.516479,648.274231 
	C844.917664,648.306396 847.918945,649.455750 845.143066,652.551147 
	C838.892395,659.521301 838.721741,668.100098 838.503052,676.520813 
	C838.148560,690.172363 838.395996,703.839478 838.389648,718.000122 
z"/>
</svg>